User Type,Username,Date,Text
,acayouche,2013-01-22T15:57Z,"For Tech Info, Here's Info On One Of The Episode:

Complete name                            : Swiss Family Robinson (1976) (PACK 1 OF 2)/EP01 Arrival.avi
Format                                   : AVI
Format/Info                              : Audio Video Interleave
File size                                : 174 MiB
Duration                                 : 23mn 38s
Overall bit rate                         : 1 027 Kbps
Writing application                      : FairUse Wizard - http://fairusewizard.com
Writing library                          : The best and REALLY easy backup tool

Video
ID                                       : 0
Format                                   : MPEG-4 Visual
Format profile                           : Advanced Simple@L5
Format settings, BVOP                    : 1
Format settings, QPel                    : No
Format settings, GMC                     : No warppoints
Format settings, Matrix                  : Default (MPEG)
Muxing mode                              : Packed bitstream
Codec ID                                 : XVID
Codec ID/Hint                            : XviD
Duration                                 : 23mn 38s
Bit rate                                 : 890 Kbps
Width                                    : 576 pixels
Height                                   : 432 pixels
Display aspect ratio                     : 4:3
Frame rate                               : 23.976 fps
Color space                              : YUV
Chroma subsampling                       : 4:2:0
Bit depth                                : 8 bits
Scan type                                : Progressive
Compression mode                         : Lossy
Bits/(Pixel*Frame)                       : 0.149
Stream size                              : 150 MiB (87%)
Writing library                          : XviD 1.2.0.dev47 (UTC 2006-11-01)

Audio
ID                                       : 1
Format                                   : MPEG Audio
Format version                           : Version 1
Format profile                           : Layer 3
Mode                                     : Joint stereo
Mode extension                           : MS Stereo
Codec ID                                 : 55
Codec ID/Hint                            : MP3
Duration                                 : 23mn 38s
Bit rate mode                            : Constant
Bit rate                                 : 128 Kbps
Channel(s)                               : 2 channels
Sampling rate                            : 48.0 KHz
Compression mode                         : Lossy
Stream size                              : 21.6 MiB (12%)
Alignment                                : Aligned on interleaves
Interleave, duration                     : 42 ms (1.00 video frame)
Interleave, preload duration             : 504 ms
Writing library                          : LAME3.97 
Encoding settings                        : -m j -V 4 -q 2 -lowpass 17 -b 128
"
,acayouche,2013-01-22T18:26Z,"please stay in seed after finishing downloading, so i can put pack 2 of 2 in seed, cause i can't seed them forever.


thank you"
,Gandalf-the-whatever,2013-02-08T16:05Z,Fantastic! Thank you very much.
